[Header]
FileType HTR
DataType HTRS
FileVersion 1
NumSegments 64
NumFrames 4
DataFrameRate 24
EulerRotationOrder ZYX
CalibrationUnits mm
RotationUnits Degrees
GlobalAxisofGravity Y
BoneLengthAxis Y
ScaleFactor 1.0
[SegmentNames&Hierarchy]
Hips	GLOBAL
Spine	Hips
Spine1	Spine
Spine2	Spine1
Neck	Spine2
Head	Neck
LeftEye	Head
RightEye	Head
LeftShoulder	Spine2
LeftArm	LeftShoulder
LeftForeArm	LeftArm
LeftHand	LeftForeArm
LeftHandThumb1	LeftHand
LeftHandThumb2	LeftHandThumb1
LeftHandThumb3	LeftHandThumb2
LeftHandThumb4	LeftHandThumb3
LeftHandIndex1	LeftHand
LeftHandIndex2	LeftHandIndex1
LeftHandIndex3	LeftHandIndex2
LeftHandIndex4	LeftHandIndex3
LeftHandMiddle1	LeftHand
LeftHandMiddle2	LeftHandMiddle1
LeftHandMiddle3	LeftHandMiddle2
LeftHandMiddle4	LeftHandMiddle3
LeftHandRing1	LeftHand
LeftHandRing2	LeftHandRing1
LeftHandRing3	LeftHandRing2
LeftHandRing4	LeftHandRing3
LeftHandPinky1	LeftHand
LeftHandPinky2	LeftHandPinky1
LeftHandPinky3	LeftHandPinky2
LeftHandPinky4	LeftHandPinky3
RightShoulder	Spine2
RightArm	RightShoulder
RightForeArm	RightArm
RightHand	RightForeArm
RightHandPinky1	RightHand
RightHandPinky2	RightHandPinky1
RightHandPinky3	RightHandPinky2
RightHandPinky4	RightHandPinky3
RightHandRing1	RightHand
RightHandRing2	RightHandRing1
RightHandRing3	RightHandRing2
RightHandRing4	RightHandRing3
RightHandMiddle1	RightHand
RightHandMiddle2	RightHandMiddle1
RightHandMiddle3	RightHandMiddle2
RightHandMiddle4	RightHandMiddle3
RightHandIndex1	RightHand
RightHandIndex2	RightHandIndex1
RightHandIndex3	RightHandIndex2
RightHandIndex4	RightHandIndex3
RightHandThumb1	RightHand
RightHandThumb2	RightHandThumb1
RightHandThumb3	RightHandThumb2
RightHandThumb4	RightHandThumb3
LeftUpLeg	Hips
LeftLeg	LeftUpLeg
LeftFoot	LeftLeg
LeftToeBase	LeftFoot
RightUpLeg	Hips
RightLeg	RightUpLeg
RightFoot	RightLeg
RightToeBase	RightFoot
[BasePosition]
Hips	0	0	0	0	0	0	1
Spine	0	0	0	0	0	0	1
Spine1	0	0	0	0	0	0	1
Spine2	0	0	0	0	0	0	1
Neck	0	0	0	0	0	0	1
Head	0	0	0	0	0	0	1
LeftEye	0	0	0	0	0	0	1
RightEye	0	0	0	0	0	0	1
LeftShoulder	0	0	0	0	0	0	1
LeftArm	0	0	0	0	0	0	1
LeftForeArm	0	0	0	0	0	0	1
LeftHand	0	0	0	0	0	0	1
LeftHandThumb1	0	0	0	0	0	0	1
LeftHandThumb2	0	0	0	0	0	0	1
LeftHandThumb3	0	0	0	0	0	0	1
LeftHandThumb4	0	0	0	0	0	0	1
LeftHandIndex1	0	0	0	0	0	0	1
LeftHandIndex2	0	0	0	0	0	0	1
LeftHandIndex3	0	0	0	0	0	0	1
LeftHandIndex4	0	0	0	0	0	0	1
LeftHandMiddle1	0	0	0	0	0	0	1
LeftHandMiddle2	0	0	0	0	0	0	1
LeftHandMiddle3	0	0	0	0	0	0	1
LeftHandMiddle4	0	0	0	0	0	0	1
LeftHandRing1	0	0	0	0	0	0	1
LeftHandRing2	0	0	0	0	0	0	1
LeftHandRing3	0	0	0	0	0	0	1
LeftHandRing4	0	0	0	0	0	0	1
LeftHandPinky1	0	0	0	0	0	0	1
LeftHandPinky2	0	0	0	0	0	0	1
LeftHandPinky3	0	0	0	0	0	0	1
LeftHandPinky4	0	0	0	0	0	0	1
RightShoulder	0	0	0	0	0	0	1
RightArm	0	0	0	0	0	0	1
RightForeArm	0	0	0	0	0	0	1
RightHand	0	0	0	0	0	0	1
RightHandPinky1	0	0	0	0	0	0	1
RightHandPinky2	0	0	0	0	0	0	1
RightHandPinky3	0	0	0	0	0	0	1
RightHandPinky4	0	0	0	0	0	0	1
RightHandRing1	0	0	0	0	0	0	1
RightHandRing2	0	0	0	0	0	0	1
RightHandRing3	0	0	0	0	0	0	1
RightHandRing4	0	0	0	0	0	0	1
RightHandMiddle1	0	0	0	0	0	0	1
RightHandMiddle2	0	0	0	0	0	0	1
RightHandMiddle3	0	0	0	0	0	0	1
RightHandMiddle4	0	0	0	0	0	0	1
RightHandIndex1	0	0	0	0	0	0	1
RightHandIndex2	0	0	0	0	0	0	1
RightHandIndex3	0	0	0	0	0	0	1
RightHandIndex4	0	0	0	0	0	0	1
RightHandThumb1	0	0	0	0	0	0	1
RightHandThumb2	0	0	0	0	0	0	1
RightHandThumb3	0	0	0	0	0	0	1
RightHandThumb4	0	0	0	0	0	0	1
LeftUpLeg	0	0	0	0	0	0	1
LeftLeg	0	0	0	0	0	0	1
LeftFoot	0	0	0	0	0	0	1
LeftToeBase	0	0	0	0	0	0	1
RightUpLeg	0	0	0	0	0	0	1
RightLeg	0	0	0	0	0	0	1
RightFoot	0	0	0	0	0	0	1
RightToeBase	0	0	0	0	0	0	1
[Hips]
63	10.18453693	1017.319031	21.30737686	-0.8988542557	1.31659019	-5.589131832	1.0
64	10.0848341	1017.299133	21.17525864	-0.8858078122	1.282526374	-5.581586361	1.0
65	10.00646782	1017.281494	21.05875397	-0.8790580034	1.260535359	-5.570902348	1.0
66	9.931808472	1017.265015	20.94592667	-0.873770535	1.241304278	-5.559630871	1.0
[Spine]
63	0	101.8159943	1.315000057	0.7385593653	-1.358064175	2.947250366	1.0
64	0	101.8159943	1.315000057	0.7543289661	-1.35922277	2.95321846	1.0
65	0	101.8159943	1.315000057	0.7675375938	-1.356991172	2.957783461	1.0
66	0	101.8159943	1.315000057	0.7802699804	-1.354173779	2.962000608	1.0
[Spine1]
63	0	100.8349991	-10.00800037	-0.138716042	0.09309673309	5.93708086	1.0
64	0	100.8349991	-10.00800037	-0.1147775352	0.09531985968	5.941309929	1.0
65	0	100.8349991	-10.00800037	-0.08792753518	0.09800107777	5.943921566	1.0
66	0	100.8349991	-10.00800037	-0.06047284976	0.1007604823	5.946193695	1.0
[Spine2]
63	0	91	-13.73399925	-0.1090536416	0.7038068175	5.840679169	1.0
64	0	91	-13.73399925	-0.0849628672	0.7035642266	5.845219135	1.0
65	0	91	-13.73399925	-0.05796222389	0.7035873532	5.848174095	1.0
66	0	91	-13.73399925	-0.03035707213	0.7036482692	5.850795746	1.0
[Neck]
63	0	166.7169952	-25.16200066	1.079579711	-0.2322853506	-2.181766748	1.0
64	0	166.7169952	-25.16200066	1.093890309	-0.2334144562	-2.183245182	1.0
65	0	166.7169952	-25.16200066	1.100865126	-0.2300893664	-2.18627882	1.0
66	0	166.7169952	-25.16200066	1.106170654	-0.2260351777	-2.189588547	1.0
[Head]
63	0	96.17900085	16.84999847	2.027415991	0.8795799017	-7.895102024	1.0
64	0	96.17900085	16.84999847	2.028411388	0.8790454268	-7.908569336	1.0
65	0	96.17900085	16.84999847	2.039507866	0.9000987411	-7.931975842	1.0
66	0	96.17900085	16.84999847	2.052452326	0.9246742129	-7.957187653	1.0
[LeftEye]
63	30.6760006	64.09500122	92.83599854	0	0	0	1.0
64	30.6760006	64.09500122	92.83599854	0	0	0	1.0
65	30.6760006	64.09500122	92.83599854	0	0	0	1.0
66	30.6760006	64.09500122	92.83599854	0	0	0	1.0
[RightEye]
63	-30.6760006	64.09500122	92.83499908	0	0	0	1.0
64	-30.6760006	64.09500122	92.83499908	0	0	0	1.0
65	-30.6760006	64.09500122	92.83499908	0	0	0	1.0
66	-30.6760006	64.09500122	92.83499908	0	0	0	1.0
[LeftShoulder]
63	45.70400238	109.4599991	-26.28000069	4.590043545	-13.76805019	2.584896564	1.0
64	45.70400238	109.4599991	-26.28000069	4.598562241	-13.76273823	2.363199711	1.0
65	45.70400238	109.4599991	-26.28000069	4.609358788	-13.74776936	2.123446703	1.0
66	45.70400238	109.4599991	-26.28000069	4.620587826	-13.73110008	1.879829288	1.0
[LeftArm]
63	105.923996	-5.24600029	-22.32099915	-2.827953577	4.782988071	-92.47185516	1.0
64	105.923996	-5.24600029	-22.32099915	-2.83641839	4.761808395	-92.24346161	1.0
65	105.923996	-5.24600029	-22.32099915	-2.856002331	4.745316505	-92.00466156	1.0
66	105.923996	-5.24600029	-22.32099915	-2.877478838	4.729747772	-91.76317596	1.0
[LeftForeArm]
63	278.414978	-0.0009999999311	0	3.68985468e-07	-14.49808502	-0.0002325773967	1.0
64	278.414978	-0.0009999999311	0	1.909590537e-06	-14.48865414	-0.0001869514817	1.0
65	278.414978	-0.0009999999311	0	1.837329251e-06	-14.48626709	-0.0001995896746	1.0
66	278.414978	-0.0009999999311	0	1.361074624e-06	-14.48514748	-0.0002223783958	1.0
[LeftHand]
63	283.2879944	0	0	-27.5354023	-0.8400940895	-9.888165474	1.0
64	283.2879944	0	0	-27.52593231	-0.8550304174	-9.907558441	1.0
65	283.2879944	0	0	-27.52555847	-0.8701865077	-9.905999184	1.0
66	283.2879944	0	0	-27.52656746	-0.8852635026	-9.900880814	1.0
[LeftHandThumb1]
63	24.6609993	-15.75	26.8239994	17.51785088	-5.22176981	9.247591019	1.0
64	24.6609993	-15.75	26.8239994	17.5656662	-5.093607903	9.338606834	1.0
65	24.6609993	-15.75	26.8239994	17.61772537	-4.955979347	9.436713219	1.0
66	24.6609993	-15.75	26.8239994	17.67068291	-4.816370964	9.536308289	1.0
[LeftHandThumb2]
63	32.29800034	-18.64699936	18.64699936	-1.10199523	31.08117485	-3.205967188	1.0
64	32.29800034	-18.64699936	18.64699936	-1.040200949	31.23932648	-3.169338226	1.0
65	32.29800034	-18.64699936	18.64699936	-0.9734609723	31.40945816	-3.129748821	1.0
66	32.29800034	-18.64699936	18.64699936	-0.9056821465	31.58209801	-3.089537382	1.0
[LeftHandThumb3]
63	26.52600098	-15.31499958	15.31499958	1.632435083	7.629863262	-0.4336631298	1.0
64	26.52600098	-15.31499958	15.31499958	1.674477339	7.788069725	-0.3954713047	1.0
65	26.52600098	-15.31499958	15.31499958	1.719934702	7.958225727	-0.354154855	1.0
66	26.52600098	-15.31499958	15.31499958	1.766109824	8.130884171	-0.3121807277	1.0
[LeftHandThumb4]
63	19.54599953	-11.28499985	11.28499985	0	0	0	1.0
64	19.54599953	-11.28499985	11.28499985	0	0	0	1.0
65	19.54599953	-11.28499985	11.28499985	0	0	0	1.0
66	19.54599953	-11.28499985	11.28499985	0	0	0	1.0
[LeftHandIndex1]
63	91.09299469	-5.170999527	22.60099792	-0.3929659128	4.77567625	-8.957483292	1.0
64	91.09299469	-5.170999527	22.60099792	-0.3947908282	4.777728081	-8.979374886	1.0
65	91.09299469	-5.170999527	22.60099792	-0.3967523575	4.779930592	-9.002922058	1.0
66	91.09299469	-5.170999527	22.60099792	-0.3987425864	4.78216362	-9.026815414	1.0
[LeftHandIndex2]
63	36.76399994	0	0	-0.6828949451	2.869263887	-21.68398666	1.0
64	36.76399994	0	0	-0.6839891076	2.871194601	-21.70584297	1.0
65	36.76399994	0	0	-0.6851668954	2.873271227	-21.72933578	1.0
66	36.76399994	0	0	-0.6863622665	2.875378609	-21.75317192	1.0
[LeftHandIndex3]
63	28.83100128	0	0	-0.1304923892	0.9150877595	-11.27931881	1.0
64	28.83100128	0	0	-0.1309233159	0.9172350764	-11.30110741	1.0
65	28.83100128	0	0	-0.1313858181	0.9195466638	-11.32455921	1.0
66	28.83100128	0	0	-0.1318550259	0.9218925834	-11.34835815	1.0
[LeftHandIndex4]
63	23.92700005	0	0	0	0	0	1.0
64	23.92700005	0	0	0	0	0	1.0
65	23.92700005	0	0	0	0	0	1.0
66	23.92700005	0	0	0	0	0	1.0
[LeftHandMiddle1]
63	95.33399963	0	0	-1.65775454	8.757604599	-17.00411606	1.0
64	95.33399963	0	0	-1.660441637	8.759145737	-17.02619171	1.0
65	95.33399963	0	0	-1.663337827	8.760808945	-17.04995537	1.0
66	95.33399963	0	0	-1.666277766	8.762496948	-17.07406998	1.0
[LeftHandMiddle2]
63	36.98199844	0	0	-1.504182935	3.905475378	-34.53281784	1.0
64	36.98199844	0	0	-1.50571537	3.907070637	-34.55470276	1.0
65	36.98199844	0	0	-1.507369637	3.90879178	-34.57830811	1.0
66	36.98199844	0	0	-1.509049416	3.910538912	-34.60227585	1.0
[LeftHandMiddle3]
63	29.50900078	0	0	-0.1755982339	1.592754364	-13.37389851	1.0
64	29.50900078	0	0	-0.1761397719	1.594859362	-13.39573574	1.0
65	29.50900078	0	0	-0.1767240018	1.597120881	-13.4192028	1.0
66	29.50900078	0	0	-0.1773172319	1.599415421	-13.44301319	1.0
[LeftHandMiddle4]
63	28.3390007	0	0	0	0	0	1.0
64	28.3390007	0	0	0	0	0	1.0
65	28.3390007	0	0	0	0	0	1.0
66	28.3390007	0	0	0	0	0	1.0
[LeftHandRing1]
63	91.04499817	-0.4390000105	-18.65100098	-2.784156084	11.42605495	-25.1538887	1.0
64	91.04499817	-0.4390000105	-18.65100098	-2.806342602	11.43565941	-25.32305527	1.0
65	91.04499817	-0.4390000105	-18.65100098	-2.830247402	11.44587803	-25.5050087	1.0
66	91.04499817	-0.4390000105	-18.65100098	-2.85451293	11.45622444	-25.68964195	1.0
[LeftHandRing2]
63	31.54000092	0	0	-1.090754271	3.914753437	-38.41540909	1.0
64	31.54000092	0	0	-1.10056746	3.928084135	-38.58276749	1.0
65	31.54000092	0	0	-1.111197472	3.942376614	-38.76284027	1.0
66	31.54000092	0	0	-1.121999145	3.956869602	-38.94557953	1.0
[LeftHandRing3]
63	29.37700081	0	0	-0.05307307094	1.731222153	-17.56394577	1.0
64	29.37700081	0	0	-0.0565155521	1.747396111	-17.73005104	1.0
65	29.37700081	0	0	-0.06029841676	1.764778018	-17.90875244	1.0
66	29.37700081	0	0	-0.06415371597	1.782412529	-18.09009361	1.0
[LeftHandRing4]
63	26.47500038	0	0	0	0	0	1.0
64	26.47500038	0	0	0	0	0	1.0
65	26.47500038	0	0	0	0	0	1.0
66	26.47500038	0	0	0	0	0	1.0
[LeftHandPinky1]
63	80.77799988	-4.887000084	-38.06099701	-4.705810547	16.09059143	-35.04874039	1.0
64	80.77799988	-4.887000084	-38.06099701	-4.753831387	16.09248924	-35.22234344	1.0
65	80.77799988	-4.887000084	-38.06099701	-4.805513859	16.09440994	-35.40910721	1.0
66	80.77799988	-4.887000084	-38.06099701	-4.857963562	16.09633255	-35.598629	1.0
[LeftHandPinky2]
63	36	0	0	-1.813696027	3.698565006	-43.88234329	1.0
64	36	0	0	-1.825889826	3.709882975	-44.04911804	1.0
65	36	0	0	-1.839068055	3.721988916	-44.22854233	1.0
66	36	0	0	-1.852452993	3.734259367	-44.41062164	1.0
[LeftHandPinky3]
63	21.14200211	0	0	-0.4694380462	2.67201972	-18.75163841	1.0
64	21.14200211	0	0	-0.4761510789	2.687264919	-18.91793633	1.0
65	21.14200211	0	0	-0.4834471047	2.70363307	-19.09684753	1.0
66	21.14200211	0	0	-0.4908662736	2.720235825	-19.27839851	1.0
[LeftHandPinky4]
63	19.75699997	0	0	0	0	0	1.0
64	19.75699997	0	0	0	0	0	1.0
65	19.75699997	0	0	0	0	0	1.0
66	19.75699997	0	0	0	0	0	1.0
[RightShoulder]
63	-45.70000076	109.4620056	-26.28000069	6.097856522	2.943248034	-2.364742279	1.0
64	-45.70000076	109.4620056	-26.28000069	6.063245773	2.95059371	-2.167698622	1.0
65	-45.70000076	109.4620056	-26.28000069	6.026836395	2.956854105	-1.943320751	1.0
66	-45.70000076	109.4620056	-26.28000069	5.990062714	2.962699413	-1.713457227	1.0
[RightArm]
63	-105.9280014	-5.248000145	-22.32099915	1.085163832	1.291502714	75.60109711	1.0
64	-105.9280014	-5.248000145	-22.32099915	1.06138587	1.300683141	75.4021759	1.0
65	-105.9280014	-5.248000145	-22.32099915	1.048104048	1.304604173	75.16916656	1.0
66	-105.9280014	-5.248000145	-22.32099915	1.03663075	1.307755351	74.92948151	1.0
[RightForeArm]
63	-278.414978	0	0	-8.028254683e-07	17.64365959	-5.222726486e-06	1.0
64	-278.414978	0	0	-3.779944109e-06	17.65089607	-3.468563818e-06	1.0
65	-278.414978	0	0	-2.544123618e-06	17.65554237	8.477862139e-06	1.0
66	-278.414978	0	0	-5.96268535e-07	17.65973473	2.167155799e-05	1.0
[RightHand]
63	-283.2879944	0	0.0009999999311	-12.40515041	-6.725380421	11.93062115	1.0
64	-283.2879944	0	0.0009999999311	-12.42066669	-6.735280037	11.93169498	1.0
65	-283.2879944	0	0.0009999999311	-12.42255783	-6.75251627	11.9100647	1.0
66	-283.2879944	0	0.0009999999311	-12.421772	-6.770849705	11.88449669	1.0
[RightHandPinky1]
63	-80.76699829	-4.885000229	-38.06000137	-4.705735683	-16.09171486	35.04908371	1.0
64	-80.76699829	-4.885000229	-38.06000137	-4.753744125	-16.09361267	35.22267532	1.0
65	-80.76699829	-4.885000229	-38.06000137	-4.805422783	-16.09553146	35.40943146	1.0
66	-80.76699829	-4.885000229	-38.06000137	-4.857870579	-16.09745026	35.5989418	1.0
[RightHandPinky2]
63	-36	0	0.0009999999311	-1.812366366	-3.69686389	43.88230896	1.0
64	-36	0	0.0009999999311	-1.824553847	-3.70817399	44.04909134	1.0
65	-36	0	0.0009999999311	-1.83772862	-3.720285654	44.22851563	1.0
66	-36	0	0.0009999999311	-1.851110697	-3.732563972	44.41058731	1.0
[RightHandPinky3]
63	-21.14200211	0	0	-0.6871298552	0.2143758386	20.35202408	1.0
64	-21.14200211	0	0	-0.6942588091	0.1993260235	20.51798439	1.0
65	-21.14200211	0	0	-0.7019988894	0.1831712425	20.69652367	1.0
66	-21.14200211	0	0	-0.7098681331	0.1667855531	20.8776989	1.0
[RightHandPinky4]
63	-19.75699997	0	0	0	0	0	1.0
64	-19.75699997	0	0	0	0	0	1.0
65	-19.75699997	0	0	0	0	0	1.0
66	-19.75699997	0	0	0	0	0	1.0
[RightHandRing1]
63	-91.03599548	-0.4390000105	-18.65100098	-2.78410244	-11.42571449	25.1540699	1.0
64	-91.03599548	-0.4390000105	-18.65100098	-2.806274652	-11.43531799	25.32317734	1.0
65	-91.03599548	-0.4390000105	-18.65100098	-2.830178976	-11.4455328	25.50513077	1.0
66	-91.03599548	-0.4390000105	-18.65100098	-2.854446411	-11.45587349	25.68977165	1.0
[RightHandRing2]
63	-31.54000092	0	0	-1.090582609	-3.914255381	38.41543579	1.0
64	-31.54000092	0	0	-1.10039556	-3.927586317	38.582798	1.0
65	-31.54000092	0	0	-1.111022592	-3.941876888	38.76288986	1.0
66	-31.54000092	0	0	-1.121820927	-3.956367493	38.94564438	1.0
[RightHandRing3]
63	-29.37700081	0	0	-0.103757374	0.2631738484	16.04264069	1.0
64	-29.37700081	0	0	-0.1067663431	0.2469173074	16.20864105	1.0
65	-29.37700081	0	0	-0.1100863218	0.2294447571	16.38721466	1.0
66	-29.37700081	0	0	-0.1134724319	0.2117177099	16.56842041	1.0
[RightHandRing4]
63	-26.47500038	0	0	0	0	0	1.0
64	-26.47500038	0	0	0	0	0	1.0
65	-26.47500038	0	0	0	0	0	1.0
66	-26.47500038	0	0	0	0	0	1.0
[RightHandMiddle1]
63	-95.32500458	0	0	-1.657730579	-8.757368088	17.00424576	1.0
64	-95.32500458	0	0	-1.660417795	-8.758914948	17.02630615	1.0
65	-95.32500458	0	0	-1.663313866	-8.760577202	17.05007362	1.0
66	-95.32500458	0	0	-1.666253805	-8.762263298	17.07419586	1.0
[RightHandMiddle2]
63	-36.98199844	0	0	-1.504037023	-3.905021667	34.53284073	1.0
64	-36.98199844	0	0	-1.505572915	-3.906619549	34.55478668	1.0
65	-36.98199844	0	0	-1.507226348	-3.908338308	34.57837677	1.0
66	-36.98199844	0	0	-1.508904457	-3.91008234	34.60230637	1.0
[RightHandMiddle3]
63	-29.50900078	0	0	-0.2867714763	-1.78344512	17.00876427	1.0
64	-29.50900078	0	0	-0.2874474227	-1.785507441	17.03058815	1.0
65	-29.50900078	0	0	-0.2881765366	-1.787725449	17.05405998	1.0
66	-29.50900078	0	0	-0.2889167666	-1.78997612	17.07787895	1.0
[RightHandMiddle4]
63	-28.3390007	0	0.0009999999311	0	0	0	1.0
64	-28.3390007	0	0.0009999999311	0	0	0	1.0
65	-28.3390007	0	0.0009999999311	0	0	0	1.0
66	-28.3390007	0	0.0009999999311	0	0	0	1.0
[RightHandIndex1]
63	-91.08300018	-5.167999744	22.60099792	-0.3929574192	-4.775550365	8.957538605	1.0
64	-91.08300018	-5.167999744	22.60099792	-0.3947820067	-4.777600288	8.97944355	1.0
65	-91.08300018	-5.167999744	22.60099792	-0.3967446983	-4.779803276	9.00299263	1.0
66	-91.08300018	-5.167999744	22.60099792	-0.3987363875	-4.782037735	9.02688694	1.0
[RightHandIndex2]
63	-36.76399994	0	0	-0.6828365922	-2.868961096	21.68401146	1.0
64	-36.76399994	0	0	-0.6839319468	-2.870893717	21.70586395	1.0
65	-36.76399994	0	0	-0.6851102114	-2.872972488	21.72937012	1.0
66	-36.76399994	0	0	-0.6863058805	-2.875081778	21.75322151	1.0
[RightHandIndex3]
63	-28.83100128	0	0	-0.2662281096	-0.2654401064	14.95312214	1.0
64	-28.83100128	0	0	-0.2667942047	-0.2675567865	14.97489929	1.0
65	-28.83100128	0	0	-0.2674041092	-0.2698341906	14.99834442	1.0
66	-28.83100128	0	0	-0.2680231929	-0.2721452713	15.02213669	1.0
[RightHandIndex4]
63	-23.92700005	0	0	0	0	0	1.0
64	-23.92700005	0	0	0	0	0	1.0
65	-23.92700005	0	0	0	0	0	1.0
66	-23.92700005	0	0	0	0	0	1.0
[RightHandThumb1]
63	-24.64799881	-15.72700024	26.82600021	17.51751518	5.221997738	-9.247893333	1.0
64	-24.64799881	-15.72700024	26.82600021	17.56534004	5.093822479	-9.33886528	1.0
65	-24.64799881	-15.72700024	26.82600021	17.61739731	4.95619154	-9.436964989	1.0
66	-24.64799881	-15.72700024	26.82600021	17.67034721	4.816583633	-9.536559105	1.0
[RightHandThumb2]
63	-32.29800034	-18.64699936	18.64699936	-1.102689505	-31.07982445	3.207735777	1.0
64	-32.29800034	-18.64699936	18.64699936	-1.040901303	-31.23797989	3.171091795	1.0
65	-32.29800034	-18.64699936	18.64699936	-0.9741625786	-31.40811729	3.131501436	1.0
66	-32.29800034	-18.64699936	18.64699936	-0.9063841701	-31.58076096	3.091290951	1.0
[RightHandThumb3]
63	-26.52600098	-15.31399918	15.31399918	1.435812235	-6.769931316	1.234645963	1.0
64	-26.52600098	-15.31399918	15.31399918	1.475550294	-6.928702354	1.197368503	1.0
65	-26.52600098	-15.31399918	15.31399918	1.518508911	-7.099473	1.157019854	1.0
66	-26.52600098	-15.31399918	15.31399918	1.562144876	-7.272756577	1.116026044	1.0
[RightHandThumb4]
63	-19.54599953	-11.28499985	11.28499985	0	0	0	1.0
64	-19.54599953	-11.28499985	11.28499985	0	0	0	1.0
65	-19.54599953	-11.28499985	11.28499985	0	0	0	1.0
66	-19.54599953	-11.28499985	11.28499985	0	0	0	1.0
[LeftUpLeg]
63	82.07800293	-67.51699829	-15.99599934	-17.37121773	15.21251583	12.0467205	1.0
64	82.07800293	-67.51699829	-15.99599934	-17.37065125	15.21688652	12.04263115	1.0
65	82.07800293	-67.51699829	-15.99599934	-17.37290001	15.21952343	12.03648472	1.0
66	82.07800293	-67.51699829	-15.99599934	-17.3754158	15.2217865	12.03001118	1.0
[LeftLeg]
63	0	-443.7049866	2.845999956	25.36443138	7.696638584	6.156758308	1.0
64	0	-443.7049866	2.845999956	25.34433365	7.70088625	6.153327942	1.0
65	0	-443.7049866	2.845999956	25.33541298	7.705272675	6.148836136	1.0
66	0	-443.7049866	2.845999956	25.32840347	7.709679127	6.14415741	1.0
[LeftFoot]
63	0	-444.2789917	-29.8219986	-4.523183823	2.757874489	-11.12990665	1.0
64	0	-444.2789917	-29.8219986	-4.535337448	2.791975737	-11.12902355	1.0
65	0	-444.2789917	-29.8219986	-4.533399582	2.815676451	-11.12725735	1.0
66	0	-444.2789917	-29.8219986	-4.528348923	2.836802483	-11.12541485	1.0
[LeftToeBase]
63	0	-87.28699493	107.1060028	-0.4797930419	-4.694320523e-06	3.406253654e-06	1.0
64	0	-87.28699493	107.1060028	-0.4852650166	2.671121547e-05	-2.455736649e-06	1.0
65	0	-87.28699493	107.1060028	-0.4808441699	2.947762596e-06	-2.392414217e-06	1.0
66	0	-87.28699493	107.1060028	-0.4746358395	-3.044012738e-05	-1.237238166e-06	1.0
[RightUpLeg]
63	-82.07800293	-67.51699829	-15.99599934	-1.334373474	-4.590805531	10.80391121	1.0
64	-82.07800293	-67.51699829	-15.99599934	-1.366977096	-4.594161034	10.79175758	1.0
65	-82.07800293	-67.51699829	-15.99599934	-1.395169735	-4.601536751	10.77690029	1.0
66	-82.07800293	-67.51699829	-15.99599934	-1.421906352	-4.609455585	10.76181221	1.0
[RightLeg]
63	0	-443.7049866	2.861999989	10.67070103	-5.256708622	2.293037176	1.0
64	0	-443.7049866	2.861999989	10.70095158	-5.224661827	2.315798998	1.0
65	0	-443.7049866	2.861999989	10.73511028	-5.199204922	2.332915783	1.0
66	0	-443.7049866	2.861999989	10.76926708	-5.17555666	2.348452091	1.0
[RightFoot]
63	0	-444.2770081	-29.83799934	-9.595778465	-0.3055104017	-7.732997417	1.0
64	0	-444.2770081	-29.83799934	-9.599588394	-0.3071943223	-7.751885414	1.0
65	0	-444.2770081	-29.83799934	-9.607471466	-0.3087960184	-7.766167164	1.0
66	0	-444.2770081	-29.83799934	-9.615849495	-0.3103544116	-7.779326916	1.0
[RightToeBase]
63	0	-87.28699493	107.1060028	-0.6613084078	9.721698007e-06	5.005654202e-07	1.0
64	0	-87.28699493	107.1060028	-0.6581821442	3.324485306e-06	-7.430565319e-08	1.0
65	0	-87.28699493	107.1060028	-0.6564593911	4.253602583e-06	2.917179245e-07	1.0
66	0	-87.28699493	107.1060028	-0.6550161839	6.492805824e-06	8.210512306e-07	1.0
[EndOfFile]
